<mxfile host="app.diagrams.net" modified="2020-10-06T02:30:59.575Z" agent="5.0 (Windows NT 10.0; Win64; x64) AppleWebKit/537.36 (KHTML, like Gecko) Chrome/85.0.4183.121 Safari/537.36" etag="_fLKxjbqkMezt27vaKzz" version="13.7.7" type="github" pages="2">
  <diagram name="sequence diagram" id="9361dd3d-8414-5efd-6122-117bd74ce7a7">
    <mxGraphModel dx="1221" dy="1088" grid="1" gridSize="10" guides="1" tooltips="1" connect="1" arrows="1" fold="1" page="0" pageScale="1.5" pageWidth="826" pageHeight="1169" background="#ffffff" math="0" shadow="0">
      <root>
        <mxCell id="0" />
        <mxCell id="1" parent="0" />
        <mxCell id="KS5qGZGqWQ05uNnQKcyR-93" value="" style="edgeStyle=none;endArrow=none" parent="1" edge="1">
          <mxGeometry x="984.762824074074" y="270" width="100" height="100" as="geometry">
            <mxPoint x="1062.5034367359026" y="110" as="sourcePoint" />
            <mxPoint x="1062.5019978680346" y="180" as="targetPoint" />
          </mxGeometry>
        </mxCell>
        <mxCell id="KS5qGZGqWQ05uNnQKcyR-94" value="" style="edgeStyle=none;endArrow=none" parent="1" edge="1">
          <mxGeometry x="744.412824074074" y="270" width="100" height="100" as="geometry">
            <mxPoint x="822.1534367359026" y="110" as="sourcePoint" />
            <mxPoint x="822.1519978680345" y="180" as="targetPoint" />
          </mxGeometry>
        </mxCell>
        <mxCell id="69" value="" style="fillColor=#DEE8FF;strokeColor=none" parent="1" vertex="1">
          <mxGeometry y="-40" width="1280" height="670" as="geometry" />
        </mxCell>
        <mxCell id="2" value="" style="fillColor=#CC4125;strokeColor=#660000" parent="1" vertex="1">
          <mxGeometry x="200" y="162.5" width="10" height="207.5" as="geometry" />
        </mxCell>
        <mxCell id="7" value="process_Excel" style="shadow=1;fillColor=#A2C4C9;strokeColor=none" parent="1" vertex="1">
          <mxGeometry x="295" y="60" width="105" height="50" as="geometry" />
        </mxCell>
        <mxCell id="9" value="ReadExcel()" style="edgeStyle=none;verticalLabelPosition=top;verticalAlign=bottom" parent="1" edge="1">
          <mxGeometry x="222.5" y="112.5" width="100" height="100" as="geometry">
            <mxPoint x="212.5" y="200" as="sourcePoint" />
            <mxPoint x="342.5" y="200" as="targetPoint" />
          </mxGeometry>
        </mxCell>
        <mxCell id="15" value="Section" style="shadow=1;fillColor=#A2C4C9;strokeColor=none" parent="1" vertex="1">
          <mxGeometry x="550.0039506172839" y="59.99999999999997" width="105" height="50" as="geometry" />
        </mxCell>
        <mxCell id="17" value="" style="fillColor=#CC4125;strokeColor=#660000" parent="1" vertex="1">
          <mxGeometry x="597.5" y="162.5" width="10" height="137.5" as="geometry" />
        </mxCell>
        <mxCell id="21" value="" style="fillColor=#CC4125;strokeColor=#660000" parent="1" vertex="1">
          <mxGeometry x="817.5" y="162.5" width="10" height="137.5" as="geometry" />
        </mxCell>
        <mxCell id="22" value="Review" style="shadow=1;fillColor=#A2C4C9;strokeColor=none" parent="1" vertex="1">
          <mxGeometry x="770" y="60" width="105" height="50" as="geometry" />
        </mxCell>
        <mxCell id="24" value="Ending" style="shadow=1;fillColor=#A2C4C9;strokeColor=none" parent="1" vertex="1">
          <mxGeometry x="1010" y="60" width="105" height="50" as="geometry" />
        </mxCell>
        <mxCell id="26" value="" style="fillColor=#CC4125;strokeColor=#660000" parent="1" vertex="1">
          <mxGeometry x="1062.5" y="162.5" width="10" height="217.5" as="geometry" />
        </mxCell>
        <mxCell id="27" value="AskQuestions()" style="edgeStyle=elbowEdgeStyle;elbow=vertical;verticalLabelPosition=top;verticalAlign=bottom;entryX=0.503;entryY=0.602;entryDx=0;entryDy=0;entryPerimeter=0;" parent="1" source="17" target="9md9J8usKPNt-FavH-AS-87" edge="1">
          <mxGeometry x="540" y="270" width="100" height="100" as="geometry">
            <mxPoint x="540" y="370" as="sourcePoint" />
            <mxPoint x="710" y="200" as="targetPoint" />
            <Array as="points">
              <mxPoint x="640" y="200" />
              <mxPoint x="590" y="270" />
            </Array>
          </mxGeometry>
        </mxCell>
        <mxCell id="33" value="" style="edgeStyle=elbowEdgeStyle;elbow=horizontal;endArrow=none;dashed=1" parent="1" target="2" edge="1">
          <mxGeometry x="230.00000000000003" y="310" width="100" height="100" as="geometry">
            <mxPoint x="204.75862068965523" y="110" as="sourcePoint" />
            <mxPoint x="330" y="310" as="targetPoint" />
          </mxGeometry>
        </mxCell>
        <mxCell id="40" value=" - user&#xa; validation&#xa;&#xa; - password check" style="shape=note;align=left" parent="1" vertex="1">
          <mxGeometry x="160.0029938271605" y="390.09361111111116" width="120.02700617283949" height="109.82638888888889" as="geometry" />
        </mxCell>
        <mxCell id="71" value="StoryTelling" style="rounded=1;fontStyle=1;fillColor=#FFD966;strokeColor=none" parent="1" vertex="1">
          <mxGeometry x="30" y="-10" width="150" height="30" as="geometry" />
        </mxCell>
        <mxCell id="KS5qGZGqWQ05uNnQKcyR-90" value="" style="edgeStyle=orthogonalEdgeStyle;rounded=0;orthogonalLoop=1;jettySize=auto;html=1;" parent="1" source="KS5qGZGqWQ05uNnQKcyR-89" target="2" edge="1">
          <mxGeometry relative="1" as="geometry" />
        </mxCell>
        <mxCell id="9md9J8usKPNt-FavH-AS-94" value="" style="edgeStyle=orthogonalEdgeStyle;rounded=0;orthogonalLoop=1;jettySize=auto;html=1;" edge="1" parent="1" source="KS5qGZGqWQ05uNnQKcyR-89" target="2">
          <mxGeometry relative="1" as="geometry" />
        </mxCell>
        <mxCell id="KS5qGZGqWQ05uNnQKcyR-89" value="User" style="shape=umlActor;verticalLabelPosition=bottom;verticalAlign=top;html=1;outlineConnect=0;" parent="1" vertex="1">
          <mxGeometry x="190" y="30" width="30" height="60" as="geometry" />
        </mxCell>
        <mxCell id="6" value="" style="fillColor=#CC4125;strokeColor=#660000" parent="1" vertex="1">
          <mxGeometry x="342.5" y="162.5" width="10" height="137.5" as="geometry" />
        </mxCell>
        <mxCell id="39" value="" style="ellipse;fillColor=none;direction=south;" parent="1" vertex="1">
          <mxGeometry x="390" y="440.0042901234569" width="10" height="9.999999999999886" as="geometry" />
        </mxCell>
        <mxCell id="fRHlmYLXV_bzzpT5qPXO-88" value="" style="edgeStyle=none;endArrow=none;dashed=1" parent="1" source="40" target="39" edge="1">
          <mxGeometry x="1290" y="180" width="100" height="100" as="geometry">
            <mxPoint x="1220.0029938271605" y="375.27686613770015" as="sourcePoint" />
            <mxPoint x="1072" y="390" as="targetPoint" />
          </mxGeometry>
        </mxCell>
        <mxCell id="fRHlmYLXV_bzzpT5qPXO-91" value="" style="endArrow=classic;html=1;entryX=1.053;entryY=0.799;entryDx=0;entryDy=0;exitX=0;exitY=0.75;exitDx=0;exitDy=0;entryPerimeter=0;" parent="1" target="2" edge="1" source="26">
          <mxGeometry width="50" height="50" relative="1" as="geometry">
            <mxPoint x="1060" y="410" as="sourcePoint" />
            <mxPoint x="520" y="415" as="targetPoint" />
            <Array as="points" />
          </mxGeometry>
        </mxCell>
        <mxCell id="9md9J8usKPNt-FavH-AS-93" value="End" style="edgeLabel;html=1;align=center;verticalAlign=middle;resizable=0;points=[];" vertex="1" connectable="0" parent="fRHlmYLXV_bzzpT5qPXO-91">
          <mxGeometry x="0.0654" y="1" relative="1" as="geometry">
            <mxPoint as="offset" />
          </mxGeometry>
        </mxCell>
        <mxCell id="9md9J8usKPNt-FavH-AS-71" value="playVideo()" style="edgeStyle=elbowEdgeStyle;elbow=vertical;verticalLabelPosition=top;verticalAlign=bottom" edge="1" parent="1" target="17">
          <mxGeometry x="285" y="290" width="100" height="100" as="geometry">
            <mxPoint x="352.5" y="220" as="sourcePoint" />
            <mxPoint x="562.5" y="220" as="targetPoint" />
            <Array as="points">
              <mxPoint x="385" y="220" />
              <mxPoint x="335" y="290" />
            </Array>
          </mxGeometry>
        </mxCell>
        <mxCell id="9md9J8usKPNt-FavH-AS-72" value="Motion()" style="edgeStyle=elbowEdgeStyle;elbow=vertical;verticalLabelPosition=top;verticalAlign=bottom" edge="1" parent="1">
          <mxGeometry x="285" y="310" width="100" height="100" as="geometry">
            <mxPoint x="352.5" y="240" as="sourcePoint" />
            <mxPoint x="597.5" y="240" as="targetPoint" />
            <Array as="points">
              <mxPoint x="385" y="240" />
              <mxPoint x="335" y="310" />
            </Array>
          </mxGeometry>
        </mxCell>
        <mxCell id="9md9J8usKPNt-FavH-AS-73" value="playSound()" style="edgeStyle=elbowEdgeStyle;elbow=vertical;verticalLabelPosition=top;verticalAlign=bottom" edge="1" parent="1">
          <mxGeometry x="285" y="270" width="100" height="100" as="geometry">
            <mxPoint x="352.5" y="200" as="sourcePoint" />
            <mxPoint x="597.5" y="200" as="targetPoint" />
            <Array as="points">
              <mxPoint x="385" y="200" />
              <mxPoint x="335" y="270" />
            </Array>
          </mxGeometry>
        </mxCell>
        <mxCell id="9md9J8usKPNt-FavH-AS-74" value="TTS()" style="edgeStyle=elbowEdgeStyle;elbow=vertical;verticalLabelPosition=top;verticalAlign=bottom" edge="1" parent="1">
          <mxGeometry x="285" y="330" width="100" height="100" as="geometry">
            <mxPoint x="352.5" y="260" as="sourcePoint" />
            <mxPoint x="597.5" y="260" as="targetPoint" />
            <Array as="points">
              <mxPoint x="385" y="260" />
              <mxPoint x="335" y="330" />
            </Array>
          </mxGeometry>
        </mxCell>
        <mxCell id="9md9J8usKPNt-FavH-AS-80" value="playVideo()" style="edgeStyle=elbowEdgeStyle;elbow=vertical;verticalLabelPosition=top;verticalAlign=bottom" edge="1" parent="1">
          <mxGeometry x="750" y="290" width="100" height="100" as="geometry">
            <mxPoint x="830" y="220" as="sourcePoint" />
            <mxPoint x="1062.5" y="220" as="targetPoint" />
            <Array as="points">
              <mxPoint x="850" y="220" />
              <mxPoint x="800" y="290" />
            </Array>
          </mxGeometry>
        </mxCell>
        <mxCell id="9md9J8usKPNt-FavH-AS-81" value="Motion()" style="edgeStyle=elbowEdgeStyle;elbow=vertical;verticalLabelPosition=top;verticalAlign=bottom" edge="1" parent="1">
          <mxGeometry x="750" y="310" width="100" height="100" as="geometry">
            <mxPoint x="830" y="240" as="sourcePoint" />
            <mxPoint x="1062.5" y="240" as="targetPoint" />
            <Array as="points">
              <mxPoint x="850" y="240" />
              <mxPoint x="800" y="310" />
            </Array>
          </mxGeometry>
        </mxCell>
        <mxCell id="9md9J8usKPNt-FavH-AS-82" value="playSound()" style="edgeStyle=elbowEdgeStyle;elbow=vertical;verticalLabelPosition=top;verticalAlign=bottom;exitX=0.983;exitY=0.278;exitDx=0;exitDy=0;exitPerimeter=0;" edge="1" parent="1" source="21">
          <mxGeometry x="750" y="270" width="100" height="100" as="geometry">
            <mxPoint x="830" y="200" as="sourcePoint" />
            <mxPoint x="1062.5" y="200" as="targetPoint" />
            <Array as="points">
              <mxPoint x="850" y="200" />
              <mxPoint x="800" y="270" />
            </Array>
          </mxGeometry>
        </mxCell>
        <mxCell id="9md9J8usKPNt-FavH-AS-83" value="TTS()" style="edgeStyle=elbowEdgeStyle;elbow=vertical;verticalLabelPosition=top;verticalAlign=bottom" edge="1" parent="1">
          <mxGeometry x="750" y="330" width="100" height="100" as="geometry">
            <mxPoint x="830" y="260" as="sourcePoint" />
            <mxPoint x="1062.5" y="260" as="targetPoint" />
            <Array as="points">
              <mxPoint x="850" y="260" />
              <mxPoint x="800" y="330" />
            </Array>
          </mxGeometry>
        </mxCell>
        <mxCell id="9md9J8usKPNt-FavH-AS-84" value="Text_type" style="edgeStyle=elbowEdgeStyle;elbow=vertical;verticalLabelPosition=top;verticalAlign=bottom" edge="1" parent="1">
          <mxGeometry x="647.5" y="250" width="100" height="100" as="geometry">
            <mxPoint x="715" y="180" as="sourcePoint" />
            <mxPoint x="817.5" y="180" as="targetPoint" />
            <Array as="points">
              <mxPoint x="747.5" y="180" />
              <mxPoint x="697.5" y="250" />
            </Array>
          </mxGeometry>
        </mxCell>
        <mxCell id="9md9J8usKPNt-FavH-AS-85" value="Picture_type" style="edgeStyle=elbowEdgeStyle;elbow=vertical;verticalLabelPosition=top;verticalAlign=bottom" edge="1" parent="1">
          <mxGeometry x="647.5" y="290" width="100" height="100" as="geometry">
            <mxPoint x="715" y="220" as="sourcePoint" />
            <mxPoint x="817.5" y="220" as="targetPoint" />
            <Array as="points">
              <mxPoint x="747.5" y="220" />
              <mxPoint x="697.5" y="290" />
            </Array>
          </mxGeometry>
        </mxCell>
        <mxCell id="9md9J8usKPNt-FavH-AS-87" value="" style="line;strokeWidth=2;direction=south;html=1;" vertex="1" parent="1">
          <mxGeometry x="710" y="180" width="10" height="40" as="geometry" />
        </mxCell>
        <mxCell id="9md9J8usKPNt-FavH-AS-88" value="OR" style="text;html=1;fillColor=none;align=center;verticalAlign=middle;whiteSpace=wrap;rounded=0;" vertex="1" parent="1">
          <mxGeometry x="750" y="190" width="20" height="10" as="geometry" />
        </mxCell>
        <mxCell id="9md9J8usKPNt-FavH-AS-89" value="showImage()" style="edgeStyle=elbowEdgeStyle;elbow=vertical;verticalLabelPosition=top;verticalAlign=bottom" edge="1" parent="1">
          <mxGeometry x="285" y="350" width="100" height="100" as="geometry">
            <mxPoint x="352.5" y="280" as="sourcePoint" />
            <mxPoint x="597.5" y="280" as="targetPoint" />
            <Array as="points">
              <mxPoint x="385" y="280" />
              <mxPoint x="335" y="350" />
            </Array>
          </mxGeometry>
        </mxCell>
        <mxCell id="9md9J8usKPNt-FavH-AS-90" value="showImage()" style="edgeStyle=elbowEdgeStyle;elbow=vertical;verticalLabelPosition=top;verticalAlign=bottom;" edge="1" parent="1">
          <mxGeometry x="760" y="350" width="100" height="100" as="geometry">
            <mxPoint x="827.5" y="280" as="sourcePoint" />
            <mxPoint x="1060" y="280" as="targetPoint" />
            <Array as="points">
              <mxPoint x="860" y="280" />
              <mxPoint x="810" y="350" />
            </Array>
          </mxGeometry>
        </mxCell>
        <mxCell id="9md9J8usKPNt-FavH-AS-95" value="" style="endArrow=none;dashed=1;html=1;dashPattern=1 3;strokeWidth=2;entryX=0.5;entryY=1;entryDx=0;entryDy=0;exitX=0.5;exitY=0;exitDx=0;exitDy=0;" edge="1" parent="1" source="6" target="7">
          <mxGeometry width="50" height="50" relative="1" as="geometry">
            <mxPoint x="610" y="340" as="sourcePoint" />
            <mxPoint x="660" y="290" as="targetPoint" />
          </mxGeometry>
        </mxCell>
        <mxCell id="9md9J8usKPNt-FavH-AS-97" value="" style="endArrow=none;dashed=1;html=1;dashPattern=1 3;strokeWidth=2;entryX=0.5;entryY=1;entryDx=0;entryDy=0;exitX=0.5;exitY=0;exitDx=0;exitDy=0;" edge="1" parent="1">
          <mxGeometry width="50" height="50" relative="1" as="geometry">
            <mxPoint x="602.3" y="162.5" as="sourcePoint" />
            <mxPoint x="602.3" y="110" as="targetPoint" />
          </mxGeometry>
        </mxCell>
        <mxCell id="9md9J8usKPNt-FavH-AS-98" value="" style="endArrow=none;dashed=1;html=1;dashPattern=1 3;strokeWidth=2;entryX=0.5;entryY=1;entryDx=0;entryDy=0;exitX=0.5;exitY=0;exitDx=0;exitDy=0;" edge="1" parent="1">
          <mxGeometry width="50" height="50" relative="1" as="geometry">
            <mxPoint x="822.3" y="162.5" as="sourcePoint" />
            <mxPoint x="822.3" y="110" as="targetPoint" />
          </mxGeometry>
        </mxCell>
        <mxCell id="9md9J8usKPNt-FavH-AS-99" value="" style="endArrow=none;dashed=1;html=1;dashPattern=1 3;strokeWidth=2;entryX=0.5;entryY=1;entryDx=0;entryDy=0;exitX=0.5;exitY=0;exitDx=0;exitDy=0;" edge="1" parent="1">
          <mxGeometry width="50" height="50" relative="1" as="geometry">
            <mxPoint x="1067.3" y="162.5" as="sourcePoint" />
            <mxPoint x="1067.3" y="110" as="targetPoint" />
          </mxGeometry>
        </mxCell>
      </root>
    </mxGraphModel>
  </diagram>
  <diagram id="WVfsM9W4zLKHH_mNgAVs" name="Page-2">
    <mxGraphModel dx="716" dy="1572" grid="1" gridSize="10" guides="1" tooltips="1" connect="1" arrows="1" fold="1" page="1" pageScale="1" pageWidth="827" pageHeight="1169" math="0" shadow="0">
      <root>
        <mxCell id="P1gCdbork5o8AnYZZEtu-0" />
        <mxCell id="P1gCdbork5o8AnYZZEtu-1" parent="P1gCdbork5o8AnYZZEtu-0" />
        <mxCell id="bJd6qJVdSjFUARL3tQS6-0" value="" style="fillColor=#DEE8FF;strokeColor=none" parent="P1gCdbork5o8AnYZZEtu-1" vertex="1">
          <mxGeometry x="30" y="-20" width="1310" height="720" as="geometry" />
        </mxCell>
        <mxCell id="bJd6qJVdSjFUARL3tQS6-17" value="StoryTelling" style="rounded=1;fontStyle=1;fillColor=#FFD966;strokeColor=none" parent="P1gCdbork5o8AnYZZEtu-1" vertex="1">
          <mxGeometry x="480" y="70" width="150" height="30" as="geometry" />
        </mxCell>
        <mxCell id="S5V0LhMDhIqk0AyRmhoE-0" value="" style="rounded=0;whiteSpace=wrap;html=1;strokeColor=#000000;" vertex="1" parent="P1gCdbork5o8AnYZZEtu-1">
          <mxGeometry x="330" y="110" width="430" height="430" as="geometry" />
        </mxCell>
        <mxCell id="S5V0LhMDhIqk0AyRmhoE-1" value="Actor" style="shape=umlActor;verticalLabelPosition=bottom;verticalAlign=top;html=1;outlineConnect=0;strokeColor=#000000;" vertex="1" parent="P1gCdbork5o8AnYZZEtu-1">
          <mxGeometry x="250" y="250" width="30" height="60" as="geometry" />
        </mxCell>
        <mxCell id="S5V0LhMDhIqk0AyRmhoE-4" value="Actor" style="shape=umlActor;verticalLabelPosition=bottom;verticalAlign=top;html=1;outlineConnect=0;strokeColor=#000000;" vertex="1" parent="P1gCdbork5o8AnYZZEtu-1">
          <mxGeometry x="827" y="255" width="30" height="60" as="geometry" />
        </mxCell>
        <mxCell id="ZaFx9XiumE48rM6VbhXs-5" value="" style="edgeStyle=orthogonalEdgeStyle;rounded=0;orthogonalLoop=1;jettySize=auto;html=1;" edge="1" parent="P1gCdbork5o8AnYZZEtu-1" source="S5V0LhMDhIqk0AyRmhoE-5" target="ZaFx9XiumE48rM6VbhXs-4">
          <mxGeometry relative="1" as="geometry" />
        </mxCell>
        <mxCell id="ZaFx9XiumE48rM6VbhXs-6" style="edgeStyle=orthogonalEdgeStyle;rounded=0;orthogonalLoop=1;jettySize=auto;html=1;" edge="1" parent="P1gCdbork5o8AnYZZEtu-1" source="S5V0LhMDhIqk0AyRmhoE-5" target="ZaFx9XiumE48rM6VbhXs-3">
          <mxGeometry relative="1" as="geometry" />
        </mxCell>
        <mxCell id="S5V0LhMDhIqk0AyRmhoE-5" value="Review" style="ellipse;whiteSpace=wrap;html=1;strokeColor=#000000;" vertex="1" parent="P1gCdbork5o8AnYZZEtu-1">
          <mxGeometry x="369" y="270" width="71" height="40" as="geometry" />
        </mxCell>
        <mxCell id="ZaFx9XiumE48rM6VbhXs-3" value="給予評價" style="ellipse;whiteSpace=wrap;html=1;strokeColor=#000000;" vertex="1" parent="P1gCdbork5o8AnYZZEtu-1">
          <mxGeometry x="509.5" y="230" width="71" height="40" as="geometry" />
        </mxCell>
        <mxCell id="ZaFx9XiumE48rM6VbhXs-4" value="Review" style="ellipse;whiteSpace=wrap;html=1;strokeColor=#000000;" vertex="1" parent="P1gCdbork5o8AnYZZEtu-1">
          <mxGeometry x="509.5" y="305" width="71" height="40" as="geometry" />
        </mxCell>
      </root>
    </mxGraphModel>
  </diagram>
</mxfile>
